<svg><defs> <!--  viewbox="0 0 365 185" --> <g id="car"> <rect x="70" y="10" width="220" height="130" fill="transparent" rx="150" stroke="crimson" stroke-width="10"></rect> <rect x="10" y="70" width="340" height="80" fill="crimson" rx="30"></rect> <g stroke="crimson" stroke-width="10"> <line x1="145" y1="10" x2="145" y2="80"></line> <line x1="215" y1="10" x2="215" y2="80"></line> </g> <g fill="#999"> <rect x="0" y="110" width="40" height="20" rx="10"></rect> <rect x="325" y="110" width="40" height="20" rx="10"></rect> </g> <g> <circle r="40px" fill="#222" stroke="white" stroke-width="7" cx="90" cy="140"></circle> <circle r="15px" fill="#555" cx="90" cy="140"></circle> </g> <g> <circle r="40px" fill="#222" stroke="white" stroke-width="7" cx="270" cy="140"></circle> <circle r="15px" fill="#555" cx="270" cy="140"></circle> </g> <g> <circle r="15px" fill="gold" cx="340" cy="90"></circle> <circle r="10px" fill="orange" cx="15" cy="90"></circle> </g> </g>  <path d="M50 500c-27.614 0-50-22.386-50-50v-400c0-27.614 22.386-50 50-50h400c27.615 0 50 22.386 50 50v219.224l-84.141-84.141-17.678 17.678 101.818 101.818v35.355l-119.496-119.496-17.678 17.678 137.174 137.174v35.397l-154.851-154.851-17.677 17.677 172.528 172.528v3.961c0 27.614-22.385 50-50 50h-109.618c4.128-39.908-9.142-81.331-39.788-111.978l-61.52-61.518-61.517-61.518c-24.497-24.498-24.568-64.143-.161-88.55 24.407-24.407 64.053-24.335 88.549.161l8.484 8.484v106.067l159.1-159.1h-106.067l-8.484-8.484c-53.893-53.893-141.111-54.051-194.808-.354s-53.539 140.916.354 194.809l61.518 61.518 61.519 61.518c16.006 16.006 21.584 38.48 16.719 58.945zm0 0" fill="#4B86C2" id="logo"></path>  <text x="0" y="95%" id="text-svg">SVG</text> </defs></svg>