<svg xmlns="http://www.w3.org/2000/svg" width="100" height="100" viewBox="0 0 100 100">
    <path id="camera" d="M29.688 59.375c0 11.218 9.094 20.313 20.313 20.313s20.313-9.094 20.313-20.313-9.094-20.313-20.313-20.313-20.313 9.094-20.313 20.313zM93.75 25h-21.875c-1.563-6.25-3.125-12.5-9.375-12.5h-25c-6.25 0-7.813 6.25-9.375 12.5h-21.875c-3.438 0-6.25 2.813-6.25 6.25v56.25c0 3.438 2.813 6.25 6.25 6.25h87.5c3.438 0 6.25-2.813 6.25-6.25v-56.25c0-3.438-2.813-6.25-6.25-6.25zM50 87.109c-15.317 0-27.734-12.417-27.734-27.734 0-15.317 12.417-27.734 27.734-27.734 15.318 0 27.734 12.417 27.734 27.734 0 15.318-12.417 27.734-27.734 27.734zM93.75 43.75h-12.5v-6.25h12.5v6.25z"/>
</svg>